<svg xmlns="http://www.w3.org/2000/svg" viewBox="0 0 720 820" role="img" aria-label="Illustration of Vanilla Suede Reed Diffuser"><defs><linearGradient id="bg" x1="0" x2="1" y1="0" y2="1"><stop stop-color="#f5e8e9"/><stop offset="1" stop-color="#fff9fa"/></linearGradient><linearGradient id="solid" x1="0" x2="1" y1="0" y2="1"><stop stop-color="#d7a4b9"/><stop offset=".55" stop-color="#7d3b58"/><stop offset="1" stop-color="#481f35"/></linearGradient><linearGradient id="glass" x1="0" x2="1" y1="0" y2="1"><stop stop-color="#fff" stop-opacity=".72"/><stop offset=".45" stop-color="#d7a4b9" stop-opacity=".82"/><stop offset="1" stop-color="#7d3b58" stop-opacity=".9"/></linearGradient></defs><rect width="720" height="820" fill="url(#bg)"/><circle cx="597" cy="134" r="157" fill="#fff" opacity=".2"/><text x="54" y="72" font-family="Arial,sans-serif" font-size="20" letter-spacing="5" fill="#481f35" opacity=".7">LUXARA</text><text x="54" y="105" font-family="Arial,sans-serif" font-size="12" letter-spacing="3" fill="#481f35" opacity=".55">DIFFUSERS · SAMPLE ART</text><ellipse cx="360" cy="665" rx="205" ry="25" fill="#2b1020" opacity=".08"/><line x1="325" y1="340" x2="260" y2="132" stroke="#481f35" stroke-width="5" stroke-linecap="round"/><line x1="340" y1="340" x2="293" y2="156" stroke="#481f35" stroke-width="5" stroke-linecap="round"/><line x1="355" y1="340" x2="326" y2="132" stroke="#481f35" stroke-width="5" stroke-linecap="round"/><line x1="370" y1="340" x2="359" y2="156" stroke="#481f35" stroke-width="5" stroke-linecap="round"/><line x1="385" y1="340" x2="392" y2="132" stroke="#481f35" stroke-width="5" stroke-linecap="round"/><line x1="400" y1="340" x2="425" y2="156" stroke="#481f35" stroke-width="5" stroke-linecap="round"/><line x1="415" y1="340" x2="458" y2="132" stroke="#481f35" stroke-width="5" stroke-linecap="round"/><path d="M272 344 Q268 318 291 313 H429 Q452 318 448 344 L421 633 Q360 652 299 633 Z" fill="url(#glass)" stroke="#481f35" stroke-width="4"/><rect x="302" y="430" width="116" height="95" rx="4" fill="#fff8f8" opacity=".8"/><text x="360" y="483" text-anchor="middle" font-family="Georgia" font-size="19" letter-spacing="3" fill="#481f35">LUXARA</text><path d="M300 345H420" stroke="#7d3b58" stroke-width="17"/><text x="360" y="730" text-anchor="middle" font-family="Georgia,serif" font-size="28" fill="#481f35">Vanilla Suede Reed Diffuser</text><path d="M54 785H666" stroke="#481f35" opacity=".18"/></svg>